<?xml version="1.0" standalone="no"?><!DOCTYPE svg PUBLIC "-//W3C//DTD SVG 1.1//EN" "http://www.w3.org/Graphics/SVG/1.1/DTD/svg11.dtd"><svg t="1535510033198" class="icon" style="" viewBox="0 0 1024 1024" version="1.1" xmlns="http://www.w3.org/2000/svg" p-id="4348" xmlns:xlink="http://www.w3.org/1999/xlink" width="22" height="22"><defs><style type="text/css"></style></defs><path d="M566.3104 512L711.04 367.2448a38.4 38.4 0 1 0-54.2976-54.2976L512 457.6896 367.2448 312.96a38.4 38.4 0 0 0-54.3104 54.3104L457.7152 512l-144.768 144.7552a38.4 38.4 0 1 0 54.3104 54.2976L512 566.3104 656.7552 711.04a38.4 38.4 0 0 0 54.3104-54.3104L566.2848 512zM512 1024C229.2352 1024 0 794.7648 0 512S229.2352 0 512 0s512 229.2352 512 512-229.2352 512-512 512z" fill="#F60000" p-id="4349"></path></svg>