<?xml version="1.0" standalone="no"?><!DOCTYPE svg PUBLIC "-//W3C//DTD SVG 1.1//EN" "http://www.w3.org/Graphics/SVG/1.1/DTD/svg11.dtd"><svg t="1535525075011" class="icon" style="" viewBox="0 0 1024 1024" version="1.1" xmlns="http://www.w3.org/2000/svg" p-id="7682" xmlns:xlink="http://www.w3.org/1999/xlink" width="22" height="22"><defs><style type="text/css"></style></defs><path d="M512 0C229.205333 0 0 229.205333 0 512s229.205333 512 512 512 512-229.205333 512-512S794.794667 0 512 0z m42.666667 768a42.624 42.624 0 1 1-85.333334 0 42.624 42.624 0 1 1 85.333334 0z m0-117.333333c0 17.706667-19.072 32-42.666667 32-23.594667 0-42.666667-14.293333-42.666667-32V202.666667c0-17.706667 19.072-32 42.666667-32 23.594667 0 42.666667 14.293333 42.666667 32v448z" fill="#FFB232" p-id="7683"></path></svg>