<?xml version="1.0" standalone="no"?><!DOCTYPE svg PUBLIC "-//W3C//DTD SVG 1.1//EN" "http://www.w3.org/Graphics/SVG/1.1/DTD/svg11.dtd"><svg class="icon" width="16px" height="16.00px" viewBox="0 0 1024 1024" version="1.1" xmlns="http://www.w3.org/2000/svg"><path fill="#ffffff" d="M512.2 960.1C284.7 960.1 99.7 775 99.7 547.5c0-140.9 70.9-270.7 189.7-347.1 26.9-17.3 62.6-9.5 79.9 17.3 17.3 26.9 9.5 62.6-17.3 79.9-85.5 55-136.6 148.4-136.6 249.9 0 163.7 133.2 296.9 296.9 296.9s296.9-133.2 296.9-296.9c0-101.4-51.1-194.8-136.6-249.9-26.9-17.3-34.6-53-17.3-79.9 17.3-26.9 53.1-34.6 79.9-17.3C854 276.8 924.9 406.6 924.9 547.5c-0.1 227.5-185.2 412.6-412.7 412.6z"  /><path fill="#ffffff" d="M512.2 546.7c-31.9 0-57.8-25.9-57.8-57.8v-367c0-31.9 25.9-57.8 57.8-57.8S570 89.9 570 121.9v367c0 31.9-25.8 57.8-57.8 57.8z"  /></svg>