<?xml version="1.0" standalone="no"?><!DOCTYPE svg PUBLIC "-//W3C//DTD SVG 1.1//EN" "http://www.w3.org/Graphics/SVG/1.1/DTD/svg11.dtd"><svg class="icon" width="18px" height="18.00px" viewBox="0 0 1024 1024" version="1.1" xmlns="http://www.w3.org/2000/svg"><path fill="#cdcdcd" d="M512 1024C230.4 1024 0 793.6 0 512S230.4 0 512 0s512 230.4 512 512-230.4 512-512 512z m0-967.111111C261.688889 56.888889 56.888889 261.688889 56.888889 512s204.8 455.111111 455.111111 455.111111 455.111111-204.8 455.111111-455.111111S762.311111 56.888889 512 56.888889z"  /><path fill="#cdcdcd" d="M551.822222 512l182.044445-182.044444c11.377778-11.377778 11.377778-28.444444 0-39.822223s-28.444444-11.377778-39.822223 0L512 472.177778l-182.044444-182.044445c-11.377778-11.377778-28.444444-11.377778-39.822223 0s-11.377778 28.444444 0 39.822223l182.044445 182.044444-182.044445 182.044444c-11.377778 11.377778-11.377778 28.444444 0 39.822223 5.688889 5.688889 14.222222 8.533333 19.911111 8.533333s14.222222-2.844444 19.911112-8.533333l182.044444-182.044445 182.044444 182.044445c5.688889 5.688889 14.222222 8.533333 19.911112 8.533333s14.222222-2.844444 19.911111-8.533333c11.377778-11.377778 11.377778-28.444444 0-39.822223L551.822222 512z"  /></svg>