<?xml version="1.0" standalone="no"?><!DOCTYPE svg PUBLIC "-//W3C//DTD SVG 1.1//EN" "http://www.w3.org/Graphics/SVG/1.1/DTD/svg11.dtd"><svg class="icon" width="24px" height="22.82px" viewBox="0 0 1077 1024" version="1.1" xmlns="http://www.w3.org/2000/svg"><path fill="#828aa1" d="M883.442526 523.317895v377.317052A107.304421 107.304421 0 0 1 776.084211 1008.370526h-135.168v-182.056421a121.370947 121.370947 0 0 0-121.263158-121.101473 120.885895 120.885895 0 0 0-121.263158 121.101473v182.056421H263.221895a107.789474 107.789474 0 0 1-107.358316-107.735579V523.317895H28.133053c-29.911579 0-37.187368-16.976842-15.791158-38.373053l468.88421-468.938105a54.056421 54.056421 0 0 1 76.8 0l468.884211 468.88421c21.234526 21.234526 14.605474 38.426947-15.683369 38.426948h-127.784421z"  /></svg>