<?xml version="1.0" standalone="no"?><!DOCTYPE svg PUBLIC "-//W3C//DTD SVG 1.1//EN" "http://www.w3.org/Graphics/SVG/1.1/DTD/svg11.dtd"><svg class="icon" width="18px" height="18.00px" viewBox="0 0 1024 1024" version="1.1" xmlns="http://www.w3.org/2000/svg"><path fill="#008ce6" d="M512 527.424c-141.184 0-256-114.816-256-256s114.816-256 256-256 256 114.816 256 256-114.816 256-256 256z m0-448c-105.856 0-192 86.144-192 192s86.144 192 192 192 192-86.144 192-192-86.144-192-192-192z m355.712 929.152h-711.36A108.416 108.416 0 0 1 48 900.288C48 712 199.36 560.576 385.344 560.576h253.312A337.792 337.792 0 0 1 976 897.92c0 62.08-48.576 110.656-108.288 110.656z m-482.368-384A273.664 273.664 0 0 0 112 897.92c0 26.752 19.904 46.656 44.352 46.656h711.36A44.352 44.352 0 0 0 912 900.288c0-153.088-122.624-275.712-273.344-275.712H385.344z"  /></svg>