<?xml version="1.0" standalone="no"?><!DOCTYPE svg PUBLIC "-//W3C//DTD SVG 1.1//EN" "http://www.w3.org/Graphics/SVG/1.1/DTD/svg11.dtd"><svg class="icon" width="18px" height="18.00px" viewBox="0 0 1024 1024" version="1.1" xmlns="http://www.w3.org/2000/svg"><path fill="#008ce6" d="M853.1 429.3h-73V258.9C780.1 116.1 664.6 0 522.4 0 380.3 0 264.6 116.1 264.6 258.9v170.5h-72.9c-35.2 0-63.7 28.6-63.7 63.9V960c0 35.4 28.5 64 63.7 64h661.5c35.2 0 63.6-28.6 63.6-64V493.3c0-35.4-28.5-64-63.7-64zM558.2 738.8v101.9c0 4.6-3.7 8.4-8.3 8.4h-54.7c-4.6 0-8.4-3.8-8.4-8.4V738.8c-25.7-13.2-43.5-39.7-43.5-70.7 0-43.9 35.5-79.6 79.2-79.6 43.8 0 79.3 35.7 79.3 79.6-0.1 31-17.9 57.5-43.6 70.7z m123-309.5H363.6V263.1c0-87.9 71.3-159.5 158.9-159.5 87.6 0 158.7 71.6 158.7 159.5v166.2z"  /></svg>