<?xml version="1.0" standalone="no"?><!DOCTYPE svg PUBLIC "-//W3C//DTD SVG 1.1//EN" "http://www.w3.org/Graphics/SVG/1.1/DTD/svg11.dtd"><svg class="icon" width="21px" height="21.00px" viewBox="0 0 1024 1024" version="1.1" xmlns="http://www.w3.org/2000/svg"><path fill="#9b9b9b" d="M936.265 854.34L757.43 675.52c46.499-63.168 74.02-141.125 74.02-225.398 0-210.1-170.945-381.039-381.055-381.039S69.346 240.023 69.346 450.122c0 210.105 170.94 381.043 381.049 381.043 84.275 0 162.235-27.52 225.405-74.019l178.833 178.819c11.27 11.265 26.036 16.903 40.813 16.903 14.777 0 29.543-5.638 40.819-16.903 22.536-22.546 22.536-59.09 0-81.625zM163.14 450.122C163.14 291.733 292 162.87 450.396 162.87s287.261 128.862 287.261 287.252c0 158.39-128.867 287.252-287.261 287.252S163.14 608.512 163.14 450.122z" /></svg>