<?xml version="1.0" standalone="no"?><!DOCTYPE svg PUBLIC "-//W3C//DTD SVG 1.1//EN" "http://www.w3.org/Graphics/SVG/1.1/DTD/svg11.dtd"><svg class="icon" width="12px" height="12.00px" viewBox="0 0 1024 1024" version="1.1" xmlns="http://www.w3.org/2000/svg"><path fill="#8a8a8a" d="M 769.83 69.203 c 79.1829 45.2371 141.065 107.155 186.314 186.302 c 45.3087 78.5033 67.8676 163.672 67.8676 256.161 s -22.6543 177.658 -68.5353 256.829 c -45.9048 78.5152 -107.787 140.397 -186.958 186.302 c -78.5152 45.9168 -163.684 69.1553 -256.173 69.1553 s -177.658 -23.2863 -256.829 -69.1553 c -78.5152 -45.9048 -141.053 -107.787 -186.97 -186.302 C 22.6424 689.312 0.011923 604.155 0.011923 511.666 s 22.6543 -177.658 67.8676 -256.161 c 45.9048 -79.1471 107.787 -141.065 186.29 -186.97 C 333.353 22.6186 419.189 0 512.334 0 s 178.981 23.2863 257.544 69.1553 Z m -77.8475 470.411 c 7.98864 -7.32093 11.9233 -15.9773 11.9233 -26.6129 q 0 -16.9669 -11.9233 -27.9483 L 438.481 232.207 c -13.3064 -15.2976 -39.2516 -15.2976 -55.2289 0 c -13.9742 13.9742 -13.9742 39.2635 0 54.5612 l 226.233 224.898 l -227.557 227.557 c -13.9742 16.6331 -13.9742 40.5393 0 55.8847 c 15.2976 15.3096 41.2547 15.3096 56.5524 0 Z"  /></svg>