<?xml version="1.0" standalone="no"?><!DOCTYPE svg PUBLIC "-//W3C//DTD SVG 1.1//EN" "http://www.w3.org/Graphics/SVG/1.1/DTD/svg11.dtd"><svg class="icon" width="18px" height="18.00px" viewBox="0 0 1024 1024" version="1.1" xmlns="http://www.w3.org/2000/svg"><path fill="#b2dcf7" d="M512 921.6c-226.222 0-409.6-183.378-409.6-409.6S285.778 102.4 512 102.4 921.6 285.778 921.6 512 738.222 921.6 512 921.6z m0-81.92c180.982 0 327.68-146.698 327.68-327.68S692.982 184.32 512 184.32 184.32 331.018 184.32 512 331.018 839.68 512 839.68z"  /><path fill="#b2dcf7" d="M643.072 544.215a40.96 40.96 0 0 0 1.905-59.72L500.163 339.681a40.96 40.96 0 0 0-57.938 57.918l115.794 115.794L442.08 629.35A40.96 40.96 0 1 0 500 687.268l143.053-143.053z"  /></svg>